<svg width="14" height="14" viewBox="0 0 14 14" fill="none" xmlns="http://www.w3.org/2000/svg">
<path fill-rule="evenodd" clip-rule="evenodd" d="M3.5 2C3.5 1.17157 4.17157 0.5 5 0.5H9C9.82843 0.5 10.5 1.17157 10.5 2V3H11H14V4.5H12.5V12.0002C12.5 12.8286 11.8284 13.5002 11 13.5002H3C2.17157 13.5002 1.5 12.8286 1.5 12.0002V4.5H0V3H3H3.5V2ZM5 3H9V2H5V3ZM3 4.5V12.0002H11V4.5H9H5H3ZM8.5 10.25C8.08579 10.25 7.75 9.91421 7.75 9.5V7C7.75 6.58579 8.08579 6.25 8.5 6.25C8.91421 6.25 9.25 6.58579 9.25 7V9.5C9.25 9.91421 8.91421 10.25 8.5 10.25ZM4.75 9.5C4.75 9.91421 5.08579 10.25 5.5 10.25C5.91421 10.25 6.25 9.91421 6.25 9.5V7C6.25 6.58579 5.91421 6.25 5.5 6.25C5.08579 6.25 4.75 6.58579 4.75 7V9.5Z" fill="#262626"/>
</svg>
