
<svg version="1.0"
 width="current"  viewBox="0 0 554 980">
<g transform="translate(0,980) scale(0.1,-0.1)"
fill="current" stroke="none">
<path d="M483 9786 c-138 -32 -285 -140 -373 -277 -52 -80 -76 -149 -92 -254
-16 -113 -3 -174 58 -275 121 -199 261 -345 2217 -2309 l1757 -1766 -1338
-1340 c-2276 -2279 -2501 -2512 -2636 -2735 -65 -107 -75 -163 -53 -292 27
-161 104 -288 238 -397 81 -65 151 -98 262 -122 242 -54 332 6 1057 706 402
388 3017 3007 3385 3390 367 382 496 531 530 611 20 48 38 177 33 228 -12 103
-97 233 -315 477 -472 529 -3567 3620 -4212 4207 -110 100 -131 114 -190 133
-86 27 -243 34 -328 15z"/>
</g>
</svg>
