<svg version="1.0"
 width="current"  viewBox="0 0 1013 1013">
<g transform="translate(0,1013) scale(0.1,-0.1)"
fill="current" stroke="none">
<path d="M4765 10104 c-569 -44 -1056 -152 -1535 -339 -909 -356 -1709 -980
-2274 -1774 -510 -718 -815 -1525 -913 -2421 -25 -234 -25 -786 0 -1020 151
-1377 807 -2580 1876 -3436 807 -647 1772 -1021 2826 -1095 208 -14 641 -7
845 16 1046 113 1994 524 2790 1209 148 127 405 387 535 541 673 796 1068
1720 1182 2765 25 233 25 787 0 1020 -114 1045 -508 1966 -1181 2765 -132 157
-398 424 -556 559 -784 670 -1730 1078 -2770 1192 -137 15 -704 27 -825 18z
m-1874 -2173 c36 -12 94 -39 130 -62 46 -30 335 -311 1056 -1032 l993 -992
1002 1001 c1072 1070 1047 1047 1185 1088 312 90 631 -101 698 -419 8 -38 15
-88 15 -110 0 -69 -28 -177 -66 -255 -35 -73 -69 -107 -1043 -1082 l-1006
-1008 1006 -1007 c967 -970 1007 -1011 1042 -1083 39 -78 67 -185 67 -255 0
-134 -67 -291 -166 -389 -183 -184 -466 -215 -685 -75 -47 30 -333 310 -1056
1032 l-993 992 -1007 -1006 c-976 -974 -1010 -1008 -1083 -1043 -194 -94 -390
-82 -564 35 -85 56 -146 126 -188 215 -31 66 -58 176 -58 239 0 69 28 177 66
255 35 73 69 107 1043 1083 l1006 1007 -1006 1008 c-974 975 -1008 1009 -1043
1082 -38 78 -66 186 -66 255 0 22 7 72 15 110 68 321 392 513 706 416z"/>
</g>
</svg>
