<svg width="20" height="20" viewBox="0 0 20 20" fill="none" xmlns="http://www.w3.org/2000/svg">
<path fill-rule="evenodd" clip-rule="evenodd" d="M1.36365 4.54539C1.36365 3.03916 2.58469 1.81812 4.09092 1.81812H8.06506C9.224 1.81812 10.2564 2.55056 10.6392 3.64443L11.0076 4.6969H15.9091C17.4153 4.6969 18.6364 5.91794 18.6364 7.42418V15.404C18.6364 16.9102 17.4153 18.1312 15.9091 18.1312H4.09092C2.58469 18.1312 1.36365 16.9102 1.36365 15.404V4.54539ZM11.0076 6.06054C10.4281 6.06054 9.91193 5.69432 9.72051 5.14738L9.35214 4.09491C9.16072 3.54797 8.64453 3.18175 8.06506 3.18175H4.09092C3.33781 3.18175 2.72728 3.79227 2.72728 4.54539V15.404C2.72728 16.1571 3.3378 16.7676 4.09092 16.7676H15.9091C16.6622 16.7676 17.2727 16.1571 17.2727 15.404V7.42418C17.2727 6.67106 16.6622 6.06054 15.9091 6.06054H11.0076ZM10 8.40902C10.3766 8.40902 10.6818 8.71428 10.6818 9.09084V10.6818H12.2727C12.6493 10.6818 12.9546 10.987 12.9546 11.3636C12.9546 11.7401 12.6493 12.0454 12.2727 12.0454H10.6818V13.6363C10.6818 14.0129 10.3766 14.3181 10 14.3181C9.62345 14.3181 9.31819 14.0129 9.31819 13.6363V12.0454H7.72728C7.35073 12.0454 7.04547 11.7401 7.04547 11.3636C7.04547 10.987 7.35073 10.6818 7.72728 10.6818H9.31819V9.09084C9.31819 8.71428 9.62345 8.40902 10 8.40902Z" fill="white"/>
</svg>
