<svg width="18" height="18" viewBox="0 0 18 18" fill="none" xmlns="http://www.w3.org/2000/svg">
<path fill-rule="evenodd" clip-rule="evenodd" d="M4 2C2.89543 2 2 2.89543 2 4V6V11V13C2 14.1046 2.89543 15 4 15H14C15.1046 15 16 14.1046 16 13V6C16 4.89543 15.1046 4 14 4H10.2831L9.64573 2.9571C9.28242 2.36259 8.6359 2 7.93917 2H4ZM14 5H9.72222L8.79245 3.47855C8.61079 3.1813 8.28753 3 7.93917 3H4C3.44772 3 3 3.44772 3 4V6V7.5H15V6C15 5.44772 14.5523 5 14 5ZM15 8.5H3V11V13C3 13.5523 3.44772 14 4 14H14C14.5523 14 15 13.5523 15 13V8.5Z" fill="white"/>
</svg>
