<svg width="20" height="20" viewBox="0 0 20 20" fill="none" xmlns="http://www.w3.org/2000/svg">
<path fill-rule="evenodd" clip-rule="evenodd" d="M3 1.5C2.17157 1.5 1.5 2.17157 1.5 3V17C1.5 17.8284 2.17157 18.5 3 18.5H17C17.8284 18.5 18.5 17.8284 18.5 17V3C18.5 2.17157 17.8284 1.5 17 1.5H3ZM3 3H4.5H15.5H17V4.5V9.25H3V4.5V3ZM3 10.75V15.5V17H4.5H15.5H17V15.5V10.75H3ZM8 6.75C8.41421 6.75 8.75 6.41421 8.75 6C8.75 5.58579 8.41421 5.25 8 5.25H6C5.58579 5.25 5.25 5.58579 5.25 6C5.25 6.41421 5.58579 6.75 6 6.75H8ZM8.75 14C8.75 14.4142 8.41421 14.75 8 14.75H6C5.58579 14.75 5.25 14.4142 5.25 14C5.25 13.5858 5.58579 13.25 6 13.25H8C8.41421 13.25 8.75 13.5858 8.75 14Z" fill="white"/>
</svg>
