<svg width="20" height="20" viewBox="0 0 20 20" fill="none" xmlns="http://www.w3.org/2000/svg">
<path fill-rule="evenodd" clip-rule="evenodd" d="M4 1.5C2.61929 1.5 1.5 2.61929 1.5 4V6.625V13.375V16C1.5 17.3807 2.61929 18.5 4 18.5H16C17.3807 18.5 18.5 17.3807 18.5 16V6.625C18.5 5.24429 17.3807 4.125 16 4.125H12.4536L11.5704 2.68976C11.1154 1.95039 10.3094 1.5 9.44121 1.5H4ZM16 5.625H11.6154L10.2929 3.4759C10.1109 3.18016 9.78847 3 9.44121 3H4C3.44772 3 3 3.44772 3 4V6.625V13.375V16C3 16.5523 3.44772 17 4 17H16C16.5523 17 17 16.5523 17 16V6.625C17 6.07272 16.5523 5.625 16 5.625ZM14.55 11.7598L11.7 13.4052C11.5 13.5207 11.25 13.3764 11.25 13.1454V12.25H6.5C6.08579 12.25 5.75 11.9142 5.75 11.5C5.75 11.0858 6.08579 10.75 6.5 10.75H11.25V9.85452C11.25 9.62358 11.5 9.47925 11.7 9.59472L14.55 11.2402C14.75 11.3556 14.75 11.6443 14.55 11.7598Z" fill="white"/>
</svg>
