<svg width="18" height="18" viewBox="0 0 18 18" fill="none" xmlns="http://www.w3.org/2000/svg">
<mask id="path-1-outside-1_88_4044" maskUnits="userSpaceOnUse" x="2" y="2" width="14" height="13" fill="black">
<rect fill="white" x="2" y="2" width="14" height="13"/>
<path fill-rule="evenodd" clip-rule="evenodd" d="M4 3C3.44772 3 3 3.44772 3 4V6V11V13C3 13.5523 3.44772 14 4 14H14C14.5523 14 15 13.5523 15 13V6C15 5.44772 14.5523 5 14 5H9.72222L8.79245 3.47855C8.61079 3.1813 8.28753 3 7.93917 3H4Z"/>
</mask>
<path d="M9.72222 5L8.86894 5.52145L9.16139 6H9.72222V5ZM8.79245 3.47855L7.93917 4V4L8.79245 3.47855ZM4 4V4V2C2.89543 2 2 2.89543 2 4H4ZM4 6V4H2V6H4ZM4 11V6H2V11H4ZM4 13V11H2V13H4ZM4 13H4H2C2 14.1046 2.89543 15 4 15V13ZM14 13H4V15H14V13ZM14 13V15C15.1046 15 16 14.1046 16 13H14ZM14 6V13H16V6H14ZM14 6H16C16 4.89543 15.1046 4 14 4V6ZM9.72222 6H14V4H9.72222V6ZM7.93917 4L8.86894 5.52145L10.5755 4.47855L9.64573 2.9571L7.93917 4ZM7.93917 4V4L9.64573 2.9571C9.28242 2.36259 8.6359 2 7.93917 2V4ZM4 4H7.93917V2H4V4Z" fill="#566384" mask="url(#path-1-outside-1_88_4044)"/>
</svg>
