<svg width="18" height="18" viewBox="0 0 18 18" fill="none" xmlns="http://www.w3.org/2000/svg">
<path fill-rule="evenodd" clip-rule="evenodd" d="M4 1.5H14C15.3807 1.5 16.5 2.61929 16.5 4V14C16.5 15.3807 15.3807 16.5 14 16.5H4C2.61929 16.5 1.5 15.3807 1.5 14V4C1.5 2.61929 2.61929 1.5 4 1.5ZM4 3C3.44772 3 3 3.44772 3 4V14C3 14.5523 3.44772 15 4 15H14C14.5523 15 15 14.5523 15 14V4C15 3.44772 14.5523 3 14 3H4ZM7.68735 11.4946L7.53035 11.6517L6.53035 12.6517L6.00002 13.182L4.93936 12.1213L5.46969 11.591L6.46969 10.591L6.60019 10.4605C6.22131 9.90118 6 9.22644 6 8.5C6 6.567 7.567 5 9.5 5C11.433 5 13 6.567 13 8.5C13 10.433 11.433 12 9.5 12C8.83647 12 8.21606 11.8154 7.68735 11.4946ZM11.5 8.5C11.5 9.60457 10.6046 10.5 9.5 10.5C8.39543 10.5 7.5 9.60457 7.5 8.5C7.5 7.39543 8.39543 6.5 9.5 6.5C10.6046 6.5 11.5 7.39543 11.5 8.5Z" fill="#262626"/>
</svg>
