<svg width="20" height="20" viewBox="0 0 20 20" fill="none" xmlns="http://www.w3.org/2000/svg">
<path fill-rule="evenodd" clip-rule="evenodd" d="M8.11436 13.5L8.67386 14.7114L8.77843 14.9378L9.21995 15.8937L9.31843 16.1069L7.95667 16.7359L7.15491 15H4.5C3.11929 15 2 13.8807 2 12.5V5.5C2 4.11929 3.11929 3 4.5 3H14.5C15.8807 3 17 4.11929 17 5.5V12.5C17 13.8807 15.8807 15 14.5 15H11.8451L11.0433 16.7359L9.68157 16.1069L9.78005 15.8937L10.2216 14.9378L10.3261 14.7114L10.8856 13.5H14.5C15.0523 13.5 15.5 13.0523 15.5 12.5V5.5C15.5 4.94772 15.0523 4.5 14.5 4.5H4.5C3.94772 4.5 3.5 4.94772 3.5 5.5V12.5C3.5 13.0523 3.94772 13.5 4.5 13.5H8.11436ZM9.68157 16.1069L11.0433 16.7359C10.4354 18.0521 8.56461 18.0521 7.95667 16.7359L9.31843 16.1069C9.38995 16.2617 9.61005 16.2617 9.68157 16.1069ZM12.0462 8.01402C12.33 7.71239 12.3157 7.23774 12.014 6.95385C11.7124 6.66996 11.2377 6.68435 10.9538 6.98598L8.67647 9.40569L8.04615 8.73598C7.76226 8.43435 7.28761 8.41996 6.98598 8.70385C6.68435 8.98774 6.66996 9.46239 6.95385 9.76402L8.13032 11.014C8.27205 11.1646 8.46967 11.25 8.67647 11.25C8.88327 11.25 9.08089 11.1646 9.22262 11.014L12.0462 8.01402Z" fill="white"/>
</svg>
