<svg width="18" height="18" viewBox="0 0 18 18" fill="none" xmlns="http://www.w3.org/2000/svg">
<path fill-rule="evenodd" clip-rule="evenodd" d="M1.5 6.02081C1.5 5.62298 1.65804 5.24145 1.93934 4.96015L4.96015 1.93934C5.24145 1.65804 5.62298 1.5 6.02081 1.5H14C15.3807 1.5 16.5 2.61929 16.5 4V14C16.5 15.3807 15.3807 16.5 14 16.5H4C2.61929 16.5 1.5 15.3807 1.5 14V6.02081ZM6.02081 3H14C14.5523 3 15 3.44772 15 4V14C15 14.5523 14.5523 15 14 15H4C3.44772 15 3 14.5523 3 14V6.02081L6.02081 3ZM12.75 7.5C12.75 7.91421 12.4142 8.25 12 8.25H6C5.58579 8.25 5.25 7.91421 5.25 7.5C5.25 7.08579 5.58579 6.75 6 6.75H12C12.4142 6.75 12.75 7.08579 12.75 7.5ZM10 12.25C10.4142 12.25 10.75 11.9142 10.75 11.5C10.75 11.0858 10.4142 10.75 10 10.75H6C5.58579 10.75 5.25 11.0858 5.25 11.5C5.25 11.9142 5.58579 12.25 6 12.25H10Z" fill="#9599A5"/>
</svg>
