<svg width="18" height="18" viewBox="0 0 18 18" fill="none" xmlns="http://www.w3.org/2000/svg">
<path fill-rule="evenodd" clip-rule="evenodd" d="M7.5 13.3637L6 11.7273H4.5H3V10.2273V7.77279V6.27279H4.5L6 6.27279L7.5 4.63642L9 3.00006V5.2199V12.7802V15.0001L7.5 13.3637ZM5.34015 4.77279L7.89427 1.98647C8.31226 1.53049 8.96729 1.37785 9.54379 1.6021C10.1203 1.82634 10.5 2.38148 10.5 3.00006V15.0001C10.5 15.6186 10.1203 16.1738 9.54379 16.398C8.96729 16.6223 8.31226 16.4696 7.89427 16.0136L5.34015 13.2273H3C2.17157 13.2273 1.5 12.5558 1.5 11.7273V6.27279C1.5 5.87496 1.65804 5.49343 1.93934 5.21213C2.22064 4.93082 2.60218 4.77279 3 4.77279L5.34015 4.77279ZM12.0016 4.62146C12.3111 4.34618 12.7851 4.37394 13.0604 4.68345C13.707 5.41042 14.463 6.68753 14.6855 8.22441C14.9129 9.79506 14.5764 11.6121 13.0604 13.3167C12.7851 13.6262 12.3111 13.6539 12.0016 13.3787C11.6921 13.1034 11.6643 12.6293 11.9396 12.3198C13.1402 10.9698 13.3697 9.60505 13.201 8.43934C13.0273 7.23986 12.425 6.22606 11.9396 5.6803C11.6643 5.37079 11.6921 4.89673 12.0016 4.62146ZM15.0664 2.50849C14.795 2.19565 14.3213 2.16213 14.0084 2.43361C13.6956 2.7051 13.6621 3.17879 13.9336 3.49163C14.722 4.40013 15.6898 6.06972 15.9703 8.05497C16.2463 10.0087 15.8621 12.2862 13.9336 14.5085C13.6621 14.8213 13.6956 15.295 14.0084 15.5665C14.3213 15.838 14.795 15.8045 15.0664 15.4916C17.3034 12.914 17.787 10.1915 17.4556 7.84515C17.1285 5.5304 16.0137 3.59998 15.0664 2.50849Z" fill="black"/>
</svg>
