<svg width="20" height="20" viewBox="0 0 20 20" fill="none" xmlns="http://www.w3.org/2000/svg">
<path fill-rule="evenodd" clip-rule="evenodd" d="M8.67386 14.7114L8.11436 13.5H4.5C3.94772 13.5 3.5 13.0523 3.5 12.5V5.5C3.5 4.94772 3.94772 4.5 4.5 4.5H14.5C15.0523 4.5 15.5 4.94772 15.5 5.5V12.5C15.5 13.0523 15.0523 13.5 14.5 13.5H10.8856L10.3261 14.7114L10.2216 14.9378L9.78005 15.8937L9.68157 16.1069C9.61005 16.2617 9.38995 16.2617 9.31843 16.1069L9.21995 15.8937L8.77843 14.9378L8.67386 14.7114ZM9.31843 16.1069L7.95667 16.7359C8.56461 18.0521 10.4354 18.0521 11.0433 16.7359L9.68157 16.1069L11.0433 16.7359L11.8451 15H14.5C15.8807 15 17 13.8807 17 12.5V5.5C17 4.11929 15.8807 3 14.5 3H4.5C3.11929 3 2 4.11929 2 5.5V12.5C2 13.8807 3.11929 15 4.5 15H7.15491L7.95667 16.7359L9.31843 16.1069ZM13.25 7.5C13.25 7.91421 12.9142 8.25 12.5 8.25H6.5C6.08579 8.25 5.75 7.91421 5.75 7.5C5.75 7.08579 6.08579 6.75 6.5 6.75H12.5C12.9142 6.75 13.25 7.08579 13.25 7.5ZM12.5 11.25C12.9142 11.25 13.25 10.9142 13.25 10.5C13.25 10.0858 12.9142 9.75 12.5 9.75H6.5C6.08579 9.75 5.75 10.0858 5.75 10.5C5.75 10.9142 6.08579 11.25 6.5 11.25H12.5Z" fill="white"/>
</svg>
