<svg width="18" height="18" viewBox="0 0 18 18" fill="none" xmlns="http://www.w3.org/2000/svg">
<path fill-rule="evenodd" clip-rule="evenodd" d="M8.17386 14.2114L7.61436 13H4C3.44772 13 3 12.5523 3 12V5C3 4.44772 3.44772 4 4 4H14C14.5523 4 15 4.44772 15 5V12C15 12.5523 14.5523 13 14 13H10.3856L9.82614 14.2114L9.72157 14.4378L9.28005 15.3937L9.18157 15.6069C9.11005 15.7617 8.88995 15.7617 8.81843 15.6069L8.71995 15.3937L8.27843 14.4378L8.17386 14.2114ZM8.81843 15.6069L7.45667 16.2359C8.06461 17.5521 9.93539 17.5521 10.5433 16.2359L9.18157 15.6069L10.5433 16.2359L11.3451 14.5H14C15.3807 14.5 16.5 13.3807 16.5 12V5C16.5 3.61929 15.3807 2.5 14 2.5H4C2.61929 2.5 1.5 3.61929 1.5 5V12C1.5 13.3807 2.61929 14.5 4 14.5H6.65491L7.45667 16.2359L8.81843 15.6069ZM12.75 7C12.75 7.41421 12.4142 7.75 12 7.75H6C5.58579 7.75 5.25 7.41421 5.25 7C5.25 6.58579 5.58579 6.25 6 6.25H12C12.4142 6.25 12.75 6.58579 12.75 7ZM12 10.75C12.4142 10.75 12.75 10.4142 12.75 10C12.75 9.58579 12.4142 9.25 12 9.25H6C5.58579 9.25 5.25 9.58579 5.25 10C5.25 10.4142 5.58579 10.75 6 10.75H12Z" fill="#262626"/>
</svg>
