<svg width="18" height="18" viewBox="0 0 18 18" fill="none" xmlns="http://www.w3.org/2000/svg">
<path fill-rule="evenodd" clip-rule="evenodd" d="M13.4697 14.5303C13.7626 14.8232 14.2374 14.8232 14.5303 14.5303C14.8232 14.2374 14.8232 13.7626 14.5303 13.4697L10.0607 9L14.5303 4.53033C14.8232 4.23744 14.8232 3.76256 14.5303 3.46967C14.2374 3.17678 13.7626 3.17678 13.4697 3.46967L9 7.93934L4.53033 3.46967C4.23744 3.17678 3.76256 3.17678 3.46967 3.46967C3.17678 3.76256 3.17678 4.23744 3.46967 4.53033L7.93934 9L3.46967 13.4697C3.17678 13.7626 3.17678 14.2374 3.46967 14.5303C3.76256 14.8232 4.23744 14.8232 4.53033 14.5303L9 10.0607L13.4697 14.5303Z" fill="white"/>
</svg>
