<svg width="26" height="26" viewBox="0 0 26 26" fill="none" xmlns="http://www.w3.org/2000/svg">
<circle cx="13" cy="13" r="13" fill="#9599A5"/>
<path fill-rule="evenodd" clip-rule="evenodd" d="M9.5 8C9.5 7.17157 10.1716 6.5 11 6.5H15C15.8284 6.5 16.5 7.17157 16.5 8V9H17H20V10.5H18.5V18.0002C18.5 18.8286 17.8284 19.5002 17 19.5002H9C8.17157 19.5002 7.5 18.8286 7.5 18.0002V10.5H6V9H9H9.5V8ZM11 9H15V8H11V9ZM9 10.5V18.0002H17V10.5H15H11H9ZM14.5 16.25C14.0858 16.25 13.75 15.9142 13.75 15.5V13C13.75 12.5858 14.0858 12.25 14.5 12.25C14.9142 12.25 15.25 12.5858 15.25 13V15.5C15.25 15.9142 14.9142 16.25 14.5 16.25ZM10.75 15.5C10.75 15.9142 11.0858 16.25 11.5 16.25C11.9142 16.25 12.25 15.9142 12.25 15.5V13C12.25 12.5858 11.9142 12.25 11.5 12.25C11.0858 12.25 10.75 12.5858 10.75 13V15.5Z" fill="white"/>
</svg>
