<svg width="14" height="14" viewBox="0 0 14 14" fill="none" xmlns="http://www.w3.org/2000/svg">
<path fill-rule="evenodd" clip-rule="evenodd" d="M2 4C2.55228 4 3 3.55228 3 3C3 2.44772 2.55228 2 2 2C1.44772 2 1 2.44772 1 3C1 3.55228 1.44772 4 2 4ZM4.5 2.5C4.22386 2.5 4 2.72386 4 3C4 3.27614 4.22386 3.5 4.5 3.5H12.5C12.7761 3.5 13 3.27614 13 3C13 2.72386 12.7761 2.5 12.5 2.5H4.5ZM4.5 6.5C4.22386 6.5 4 6.72386 4 7C4 7.27614 4.22386 7.5 4.5 7.5H12.5C12.7761 7.5 13 7.27614 13 7C13 6.72386 12.7761 6.5 12.5 6.5H4.5ZM4 11C4 10.7239 4.22386 10.5 4.5 10.5H12.5C12.7761 10.5 13 10.7239 13 11C13 11.2761 12.7761 11.5 12.5 11.5H4.5C4.22386 11.5 4 11.2761 4 11ZM3 7C3 7.55228 2.55228 8 2 8C1.44772 8 1 7.55228 1 7C1 6.44772 1.44772 6 2 6C2.55228 6 3 6.44772 3 7ZM2 12C2.55228 12 3 11.5523 3 11C3 10.4477 2.55228 10 2 10C1.44772 10 1 10.4477 1 11C1 11.5523 1.44772 12 2 12Z" fill="#9599A5"/>
</svg>
