<svg width="14" height="14" viewBox="0 0 14 14" fill="none" xmlns="http://www.w3.org/2000/svg">
<path fill-rule="evenodd" clip-rule="evenodd" d="M9 2.5C9 1.94772 9.44771 1.5 10 1.5H12C12.5523 1.5 13 1.94772 13 2.5V4.5C13 5.05228 12.5523 5.5 12 5.5H10C9.44771 5.5 9 5.05228 9 4.5H7.5V7V9.5H9C9 8.94772 9.44771 8.5 10 8.5H12C12.5523 8.5 13 8.94772 13 9.5V11.5C13 12.0523 12.5523 12.5 12 12.5H10C9.44771 12.5 9 12.0523 9 11.5V10.5H7C6.72386 10.5 6.5 10.2761 6.5 10V7.5H5V8C5 8.55228 4.55228 9 4 9H2C1.44772 9 1 8.55228 1 8V6C1 5.44772 1.44772 5 2 5H4C4.55228 5 5 5.44772 5 6V6.5H6.5V4C6.5 3.72386 6.72386 3.5 7 3.5H9V2.5ZM4 7V6H3H2V7V8H3H4V7ZM11 2.5H10V3.5V4.5H11H12V3.5V2.5H11ZM10 9.5H11H12V10.5V11.5H11H10V10.5V9.5Z" fill="#9599A5"/>
</svg>
